<svg xmlns="http://www.w3.org/2000/svg" version="1.0" viewBox="0 0 74.322 102.71"><defs><linearGradient id="g" x1="557.37" x2="557.5" y1="375.55" y2="287.07" gradientUnits="userSpaceOnUse"><stop offset="0"/><stop offset="1" stop-opacity="0"/></linearGradient><linearGradient id="h" x1="557.37" x2="557.37" y1="375.55" y2="319" gradientUnits="userSpaceOnUse"><stop offset="0" stop-color="#4d4d4d"/><stop offset="1" stop-color="#fff" stop-opacity="0"/></linearGradient><linearGradient id="e" x1="561.64" x2="552.88" y1="341.67" y2="332.07" gradientUnits="userSpaceOnUse"><stop offset="0"/><stop offset="1" stop-color="#fff"/></linearGradient><linearGradient id="b" x1="577.12" x2="532.65" y1="362.74" y2="294.29" gradientUnits="userSpaceOnUse"><stop offset="0"/><stop offset="1" stop-opacity="0"/></linearGradient><radialGradient id="d" cx="557" cy="342.64" r="16.192" gradientTransform="matrix(.91243 -.73112 .43273 .54004 -96.839 561.68)" gradientUnits="userSpaceOnUse"><stop offset="0" stop-color="#fff"/><stop offset="1" stop-color="#333"/></radialGradient><radialGradient id="c" cx="526.48" cy="300.12" r="44.296" gradientTransform="matrix(.22668 1.9111 -1.644 .19499 900.52 -764.59)" gradientUnits="userSpaceOnUse"><stop offset="0" stop-color="#4d4d4d"/><stop offset="1" stop-color="#fff"/></radialGradient><radialGradient id="a" cx="530.45" cy="326.37" r="39.578" gradientTransform="matrix(-1.1108 -.92869 .6414 -.7672 958.16 1090)" gradientUnits="userSpaceOnUse"><stop offset="0" stop-color="#fff"/><stop offset="1" stop-color="#1a1a1a"/></radialGradient><filter id="f"><feGaussianBlur stdDeviation=".494"/></filter></defs><g fill-rule="evenodd"><path fill="url(#a)" stroke="#000" stroke-width=".5" d="M557.5 292.25c-21.56 0-39.06 17.5-39.06 39.06s17.5 39.07 39.06 39.07 39.06-17.51 39.06-39.07-17.5-39.06-39.06-39.06zm0 4.81c18.9 0 34.25 15.35 34.25 34.25s-15.35 34.25-34.25 34.25-34.25-15.35-34.25-34.25 15.35-34.25 34.25-34.25z" transform="translate(-432.138 -241.733) scale(.84178)"/><path fill="url(#c)" stroke="url(#b)" stroke-width=".2" d="M601.55 331.31c0 24.31-19.73 44.05-44.05 44.05-24.31 0-44.04-19.74-44.04-44.05s19.73-44.05 44.04-44.05c24.32 0 44.05 19.74 44.05 44.05zm-28.65-34.69c.3 2.37-4.32 11.35-8.09 15.51-2.61 2.41-12.31 2.15-14.08.33-4-4.11-8.13-11.69-8.63-16.6-.2-1.94 9.92-3.37 14.78-3.37 4.87 0 16.02 2.19 16.02 4.13zm-37.66 3.97c2.2.92 7.67 9.41 9.38 14.76.78 3.47-4.29 11.74-6.76 12.36-5.56 1.41-14.18 1.19-18.69-.83-1.77-.8 2.05-10.28 4.48-14.49s9.9-12.77 11.59-11.8zm-15.4 34.6c1.9-1.45 11.99-1.94 17.47-.75 3.4 1.06 8.03 9.59 7.33 12.03-1.56 5.52-6.06 12.89-10.06 15.78-1.58 1.14-7.88-6.91-10.31-11.12-2.44-4.21-6.11-14.97-4.43-15.94zm22.27 30.63c-.31-2.36 4.31-11.34 8.09-15.5 2.61-2.41 12.31-2.16 14.08-.33 4 4.11 8.13 11.69 8.63 16.6.2 1.93-9.92 3.37-14.79 3.37-4.86 0-16.01-2.19-16.01-4.14zm37.66-3.97c-2.2-.91-7.67-9.41-9.38-14.75-.78-3.47 4.29-11.74 6.75-12.36 5.56-1.41 14.19-1.19 18.69.83 1.78.79-2.04 10.27-4.47 14.49-2.43 4.21-9.9 12.77-11.59 11.79zm15.39-34.6c-1.89 1.45-11.98 1.94-17.47.75-3.39-1.05-8.02-9.58-7.32-12.03 1.56-5.52 6.06-12.88 10.06-15.77 1.58-1.14 7.88 6.91 10.31 11.12s6.11 14.96 4.42 15.93z" transform="translate(-432.138 -241.733) scale(.84178)"/><path fill="url(#d)" d="M572.95 336.78a15.692 15.692 0 1 1-31.38 0 15.692 15.692 0 1 1 31.38 0z" transform="translate(-431.93 -246.338) scale(.84178)"/><path fill="#fff" stroke="url(#e)" stroke-width=".5" d="M564.23 336.78a6.97 6.97 0 1 1-13.94 0 6.97 6.97 0 1 1 13.94 0z" transform="translate(-431.93 -246.338) scale(.84178)"/><path fill="url(#d)" d="M560.56 336.78a3.306 3.306 0 1 1-6.61 0 3.306 3.306 0 1 1 6.61 0z" transform="translate(-422.532 -246.338) scale(.84178)"/><path fill="url(#d)" d="M560.56 336.78a3.306 3.306 0 1 1-6.61 0 3.306 3.306 0 1 1 6.61 0z" transform="translate(-431.49 -255.296) scale(.84178)"/><path fill="url(#d)" d="M560.56 336.78a3.306 3.306 0 1 1-6.61 0 3.306 3.306 0 1 1 6.61 0z" transform="translate(-440.742 -246.338) scale(.84178)"/><path fill="url(#d)" d="M560.56 336.78a3.306 3.306 0 1 1-6.61 0 3.306 3.306 0 1 1 6.61 0z" transform="translate(-431.564 -237.38) scale(.84178)"/><path fill="#333" d="M48.193 37.153a1.635 1.635 0 1 1-3.269 0 1.635 1.635 0 1 1 3.269 0zM39.228 28.196a1.635 1.635 0 1 1-3.269 0 1.635 1.635 0 1 1 3.269 0zM29.977 37.153a1.635 1.635 0 1 1-3.27 0 1.635 1.635 0 1 1 3.27 0zM39.16 46.118a1.635 1.635 0 1 1-3.268 0 1.635 1.635 0 1 1 3.269 0z"/><g fill="url(#h)" stroke="url(#g)" filter="url(#f)" opacity=".5" transform="matrix(.84178 0 0 -.32116 -432.138 194.896)"><path stroke-width=".5" d="M557.5 292.25c-21.56 0-39.06 17.5-39.06 39.06s17.5 39.07 39.06 39.07 39.06-17.51 39.06-39.07-17.5-39.06-39.06-39.06zm0 4.81c18.9 0 34.25 15.35 34.25 34.25s-15.35 34.25-34.25 34.25-34.25-15.35-34.25-34.25 15.35-34.25 34.25-34.25z"/><path stroke-width=".2" d="M601.55 331.31c0 24.31-19.73 44.05-44.05 44.05-24.31 0-44.04-19.74-44.04-44.05s19.73-44.05 44.04-44.05c24.32 0 44.05 19.74 44.05 44.05zm-28.65-34.69c.3 2.37-4.32 11.35-8.09 15.51-2.61 2.41-12.31 2.15-14.08.33-4-4.11-8.13-11.69-8.63-16.6-.2-1.94 9.92-3.37 14.78-3.37 4.87 0 16.02 2.19 16.02 4.13zm-37.66 3.97c2.2.92 7.67 9.41 9.38 14.76.78 3.47-4.29 11.74-6.76 12.36-5.56 1.41-14.18 1.19-18.69-.83-1.77-.8 2.05-10.28 4.48-14.49s9.9-12.77 11.59-11.8zm-15.4 34.6c1.9-1.45 11.99-1.94 17.47-.75 3.4 1.06 8.03 9.59 7.33 12.03-1.56 5.52-6.06 12.89-10.06 15.78-1.58 1.14-7.88-6.91-10.31-11.12-2.44-4.21-6.11-14.97-4.43-15.94zm22.27 30.63c-.31-2.36 4.31-11.34 8.09-15.5 2.61-2.41 12.31-2.16 14.08-.33 4 4.11 8.13 11.69 8.63 16.6.2 1.93-9.92 3.37-14.79 3.37-4.86 0-16.01-2.19-16.01-4.14zm37.66-3.97c-2.2-.91-7.67-9.41-9.38-14.75-.78-3.47 4.29-11.74 6.75-12.36 5.56-1.41 14.19-1.19 18.69.83 1.78.79-2.04 10.27-4.47 14.49-2.43 4.21-9.9 12.77-11.59 11.79zm15.39-34.6c-1.89 1.45-11.98 1.94-17.47.75-3.39-1.05-8.02-9.58-7.32-12.03 1.56-5.52 6.06-12.88 10.06-15.77 1.58-1.14 7.88 6.91 10.31 11.12s6.11 14.96 4.42 15.93z"/><path stroke-width=".5" d="M573.196 331.31a15.692 15.692 0 1 1-31.38 0 15.692 15.692 0 1 1 31.38 0z"/><path stroke-width=".5" d="M564.476 331.31a6.97 6.97 0 1 1-13.94 0 6.97 6.97 0 1 1 13.94 0z"/><path stroke-width=".5" d="M571.971 331.31a3.306 3.306 0 1 1-6.61 0 3.306 3.306 0 1 1 6.61 0zM561.33 320.668a3.306 3.306 0 1 1-6.61 0 3.306 3.306 0 1 1 6.61 0zM550.339 331.31a3.306 3.306 0 1 1-6.61 0 3.306 3.306 0 1 1 6.61 0zM561.242 341.951a3.306 3.306 0 1 1-6.61 0 3.306 3.306 0 1 1 6.61 0z" opacity="1"/><path stroke-width=".49995398999999996" d="M570.613 331.305a1.942 1.942 0 1 1-3.883 0 1.942 1.942 0 1 1 3.883 0zM559.963 320.665a1.942 1.942 0 1 1-3.883 0 1.942 1.942 0 1 1 3.883 0zM548.973 331.305a1.942 1.942 0 1 1-3.883 0 1.942 1.942 0 1 1 3.883 0zM559.883 341.955a1.942 1.942 0 1 1-3.883 0 1.942 1.942 0 1 1 3.883 0z"/></g></g></svg>